<svg xmlns="http://www.w3.org/2000/svg" width="1922.411" height="717.729" viewBox="0 0 1922.411 717.729">
  <g id="Group_16" data-name="Group 16" transform="translate(0 0)">
    <path id="Subtraction_2" data-name="Subtraction 2" d="M2353.117,893H430.828s-.019-.081-.05-.221l-.072-.32H433.5V320.695a141.292,141.292,0,0,1,24.668-21.2,218.648,218.648,0,0,1,31.854-17.883A336.066,336.066,0,0,1,528.2,266.9c13.429-4.314,28.112-8.252,43.643-11.707,29.82-6.632,63.543-11.67,100.23-14.975,34.808-3.135,72.405-4.725,111.748-4.725,35.024,0,71.392,1.258,108.093,3.74,35.711,2.415,71.568,5.974,106.575,10.579,69.8,9.182,134.315,22.261,186.563,37.825,7.67,2.285,15.7,4.3,23.875,5.987,7.981,1.648,16.327,3.033,24.806,4.115a414.147,414.147,0,0,0,52.131,3.135c12.241,0,25.17-.471,38.427-1.4,12.639-.886,26-2.218,39.7-3.96,25.3-3.215,52.3-7.84,82.523-14.139,25.2-5.251,53.166-11.795,85.506-20.006,28.832-7.32,58.427-15.267,87.047-22.953l.031-.008,1.24-.333c57.338-15.4,116.624-31.316,173.757-43.173,30.539-6.338,57.854-10.992,83.505-14.228,13.894-1.753,27.447-3.094,40.283-3.986,13.467-.936,26.609-1.411,39.063-1.411a438.5,438.5,0,0,1,45.018,2.225c14.887,1.545,29.763,3.695,44.216,6.39,13.824,2.578,27.631,5.724,41.036,9.351,12.781,3.458,25.533,7.443,37.9,11.846,11.753,4.184,23.465,8.852,34.811,13.876a492.175,492.175,0,0,1,109.252,66.493,477.093,477.093,0,0,1,37.263,33.325c9.337,9.288,18.141,18.847,26.169,28.413,13.68,16.3,20.435,27.091,20.5,27.2V893Z" transform="translate(-430.706 -175.272)" fill="#6560e9" opacity="0.32"/>
    <path id="Subtraction_1" data-name="Subtraction 1" d="M2353.117,836H430.828s-.014-.065-.038-.176l-.069-.324h2.78V248.763a131.747,131.747,0,0,1,23.688-18.625,219.829,219.829,0,0,1,30.9-15.864c22.151-9.4,49.029-17.4,79.885-23.788,29.331-6.071,62.346-10.7,98.13-13.771,34.36-2.945,71.139-4.439,109.316-4.439,38.65,0,78.276,1.525,117.779,4.534,39.264,2.99,77.731,7.395,114.335,13.09,76.114,11.844,140.693,28.714,186.755,48.788a231.73,231.73,0,0,0,29.355,10.418,292.927,292.927,0,0,0,31.858,7.041c10.753,1.778,22.235,3.12,34.128,3.988,11.429.835,23.6,1.258,36.167,1.258,11.082,0,22.824-.329,34.9-.978,11.514-.619,23.711-1.549,36.255-2.764,23.161-2.245,47.974-5.476,75.858-9.88,51.835-8.186,106.872-19.326,160.1-30.1l3.29-.666c30.516-6.176,55.943-11.3,82.169-16.3,30.542-5.822,57.053-10.473,81.047-14.218,28.692-4.478,54.35-7.767,78.442-10.056,13.037-1.239,25.749-2.187,37.782-2.818,12.615-.662,24.92-1,36.575-1,17.476,0,34.218.756,49.762,2.246,14.887,1.428,29.763,3.533,44.216,6.257,13.824,2.6,27.631,5.846,41.036,9.634,12.779,3.61,25.531,7.813,37.9,12.49,11.753,4.444,23.465,9.432,34.812,14.824a472.378,472.378,0,0,1,109.252,72.2,485.065,485.065,0,0,1,37.262,36.541c9.335,10.2,18.14,20.725,26.169,31.269,13.683,17.97,20.435,29.906,20.5,30.024V836Z" transform="translate(-430.706 -118.272)" fill="#6560e9"/>
  </g>
</svg>
