<svg xmlns="http://www.w3.org/2000/svg" width="90" height="90" viewBox="0 0 90 90">
  <g id="Group_19" data-name="Group 19" transform="translate(-1067.411 -545.728)">
    <circle id="Ellipse_8" data-name="Ellipse 8" cx="45" cy="45" r="45" transform="translate(1067.411 545.728)" fill="#fff"/>
    <path id="Icon_feather-twitter" data-name="Icon feather-twitter" d="M34.5,4.5a16.35,16.35,0,0,1-4.71,2.3A6.72,6.72,0,0,0,18,11.295v1.5A15.99,15.99,0,0,1,4.5,6s-6,13.5,7.5,19.5a17.46,17.46,0,0,1-10.5,3c13.5,7.5,30,0,30-17.25A6.75,6.75,0,0,0,31.38,10,11.58,11.58,0,0,0,34.5,4.5Z" transform="translate(1094.411 572.785)" fill="none" stroke="#6560e9" stroke-linecap="round" stroke-linejoin="round" stroke-width="3"/>
  </g>
</svg>
