<svg xmlns="http://www.w3.org/2000/svg" width="90" height="90" viewBox="0 0 90 90">
  <g id="Group_18" data-name="Group 18" transform="translate(-882.411 -545.728)">
    <circle id="Ellipse_7" data-name="Ellipse 7" cx="45" cy="45" r="45" transform="translate(882.411 545.728)" fill="#fff"/>
    <path id="Icon_awesome-instagram" data-name="Icon awesome-instagram" d="M20.246,11.79A10.2,10.2,0,0,0,9.867,21.843,10.2,10.2,0,0,0,20.246,31.9a10.2,10.2,0,0,0,10.38-10.053A10.2,10.2,0,0,0,20.246,11.79Zm0,16.589A6.657,6.657,0,0,1,13.5,21.843a6.752,6.752,0,0,1,13.5,0,6.657,6.657,0,0,1-6.748,6.536Zm13.226-17a2.422,2.422,0,1,1-2.421-2.345A2.378,2.378,0,0,1,33.472,11.379Zm6.875,2.38c-.154-3.141-.894-5.923-3.27-8.216s-5.24-3.01-8.483-3.167c-3.343-.184-13.361-.184-16.7,0-3.234.149-6.107.866-8.483,3.159S.3,10.609.137,13.75c-.19,3.237-.19,12.94,0,16.178.154,3.141.894,5.923,3.27,8.216s5.24,3.01,8.483,3.167c3.343.184,13.361.184,16.7,0,3.243-.149,6.116-.866,8.483-3.167s3.108-5.075,3.27-8.216c.19-3.237.19-12.932,0-16.169ZM36.029,33.4a6.728,6.728,0,0,1-3.848,3.727c-2.665,1.024-8.989.787-11.934.787s-9.278.227-11.934-.787A6.728,6.728,0,0,1,4.464,33.4C3.407,30.82,3.651,24.7,3.651,21.843s-.235-8.986.813-11.558A6.728,6.728,0,0,1,8.313,6.558C10.978,5.534,17.3,5.77,20.246,5.77s9.278-.227,11.934.787a6.728,6.728,0,0,1,3.848,3.727c1.057,2.581.813,8.706.813,11.558S37.086,30.829,36.029,33.4Z" transform="translate(907.169 568.885)" fill="#6560e9"/>
  </g>
</svg>
