<svg xmlns="http://www.w3.org/2000/svg" width="65.908" height="78.438" viewBox="0 0 65.908 78.438">
  <defs>
    <style>
      .cls-1 {
        fill: none;
        opacity: 0.58;
      }

      .cls-2, .cls-3 {
        stroke: none;
      }

      .cls-3 {
        fill: #5a55e0;
      }
    </style>
  </defs>
  <g id="Polygon_3" data-name="Polygon 3" class="cls-1" transform="translate(0 66.115) rotate(-76)">
    <path class="cls-2" d="M25.758,12.427a10,10,0,0,1,16.624,0l15.35,22.95a10,10,0,0,1-8.312,15.56h-30.7a10,10,0,0,1-8.312-15.56Z"/>
    <path class="cls-3" d="M 34.06975936889648 12.98664093017578 C 32.37228775024414 12.98664093017578 30.85749053955078 13.79586410522461 29.91374588012695 15.20680236816406 L 14.56344223022461 38.15637969970703 C 13.05920791625977 40.40528869628906 13.88459396362305 42.49715805053711 14.30928802490234 43.29214477539062 C 14.73397064208984 44.08714294433594 16.01385498046875 45.93621444702148 18.71945190429688 45.93621444702148 L 49.42006683349609 45.93621444702148 C 52.12566375732422 45.93621444702148 53.40554809570312 44.08713531494141 53.83023071289062 43.29214477539062 C 54.25492477416992 42.49714660644531 55.08029937744141 40.40528869628906 53.57607650756836 38.15637969970703 L 38.22576904296875 15.20680236816406 C 37.28202819824219 13.79586410522461 35.76723098754883 12.98664093017578 34.06975936889648 12.98664093017578 M 34.06975936889648 7.986640930175781 C 37.23577880859375 7.986640930175781 40.40179443359375 9.466751098632812 42.38179397583008 12.42696762084961 L 57.73210144042969 35.37654495239258 C 62.17642974853516 42.02106475830078 57.41391372680664 50.93621444702148 49.42006683349609 50.93621444702148 L 18.71945190429688 50.93621444702148 C 10.72559356689453 50.93621444702148 5.963088989257812 42.02107238769531 10.40741729736328 35.37654495239258 L 25.75772476196289 12.42696762084961 C 27.73772430419922 9.466751098632812 30.90373992919922 7.986640930175781 34.06975936889648 7.986640930175781 Z"/>
  </g>
</svg>
