<svg xmlns="http://www.w3.org/2000/svg" width="111.344" height="105.854" viewBox="0 0 111.344 105.854">
  <defs>
    <style>
      .cls-1 {
        fill: none;
      }

      .cls-2, .cls-3 {
        stroke: none;
      }

      .cls-3 {
        fill: #aca9ff;
      }
    </style>
  </defs>
  <g id="Polygon_1" data-name="Polygon 1" class="cls-1" transform="translate(0 43.5) rotate(-30)">
    <path class="cls-2" d="M34.941,14.167a10,10,0,0,1,17.118,0L77.834,56.829A10,10,0,0,1,69.275,72H17.725A10,10,0,0,1,9.166,56.829Z"/>
    <path class="cls-3" d="M 43.49999618530273 14.33802032470703 C 42.65184020996094 14.33802032470703 40.53698348999023 14.57328033447266 39.22040939331055 16.7524528503418 L 13.44546508789062 59.41442108154297 C 12.0826416015625 61.67015075683594 12.93889617919922 63.69217681884766 13.37029266357422 64.45683288574219 C 13.80169677734375 65.22148132324219 15.089599609375 66.99999237060547 17.72505187988281 66.99999237060547 L 69.27494049072266 66.99999237060547 C 71.91038513183594 66.99999237060547 73.19829559326172 65.22149658203125 73.62969970703125 64.45683288574219 C 74.06109619140625 63.69217681884766 74.91735076904297 61.67013549804688 73.55452728271484 59.41442108154297 L 47.77956771850586 16.7524528503418 C 46.46299743652344 14.57329559326172 44.34814071655273 14.33802032470703 43.49999618530273 14.33802032470703 M 43.49999618530273 9.338027954101562 C 46.80709838867188 9.338027954101562 50.11420440673828 10.94764709472656 52.05915451049805 14.16687774658203 L 77.83409881591797 56.82883453369141 C 81.86066436767578 63.49352264404297 77.06153869628906 71.99999237060547 69.27494049072266 71.99999237060547 L 17.72505187988281 71.99999237060547 C 9.938453674316406 71.99999237060547 5.139328002929688 63.49352264404297 9.1658935546875 56.82884979248047 L 34.94083786010742 14.16687774658203 C 36.88578796386719 10.94764709472656 40.19289398193359 9.338027954101562 43.49999618530273 9.338027954101562 Z"/>
  </g>
</svg>
