<svg xmlns="http://www.w3.org/2000/svg" width="88.744" height="74.905" viewBox="0 0 88.744 74.905">
  <defs>
    <style>
      .cls-1 {
        fill: none;
      }

      .cls-2, .cls-3 {
        stroke: none;
      }

      .cls-3 {
        fill: #4f81df;
      }
    </style>
  </defs>
  <g id="Polygon_4" data-name="Polygon 4" class="cls-1" transform="translate(14.031) rotate(14)">
    <path class="cls-2" d="M30.168,12.551a10,10,0,0,1,16.663,0L66.691,42.47A10,10,0,0,1,58.359,58H18.641a10,10,0,0,1-8.332-15.53Z"/>
    <path class="cls-3" d="M 38.5 13.08182144165039 C 36.79533386230469 13.08182144165039 35.27697372436523 13.89636993408203 34.3342399597168 15.31662368774414 L 14.47475814819336 45.23479461669922 C 12.98143005371094 47.48448944091797 13.80926513671875 49.57100677490234 14.23449325561523 50.36367797851562 C 14.65973281860352 51.15634155273438 15.9403076171875 52.99999618530273 18.64051818847656 52.99999618530273 L 58.35948181152344 52.99999618530273 C 61.0596923828125 52.99999618530273 62.34026718139648 51.15634155273438 62.76550674438477 50.36367797851562 C 63.19073486328125 49.57100677490234 64.01856994628906 47.48448944091797 62.52523803710938 45.23479461669922 L 42.6657600402832 15.31660842895508 C 41.72301483154297 13.89636993408203 40.20465469360352 13.08182144165039 38.5 13.08182144165039 M 38.49999618530273 8.081817626953125 C 41.67680358886719 8.081817626953125 44.85361480712891 9.571681976318359 46.83153533935547 12.55141067504883 L 66.69100952148438 42.46958160400391 C 71.1031494140625 49.11643600463867 66.33741760253906 57.99999618530273 58.35948181152344 57.99999618530273 L 18.64051818847656 57.99999618530273 C 10.66259002685547 57.99999618530273 5.8968505859375 49.11643600463867 10.30899047851562 42.46958160400391 L 30.1684684753418 12.55141067504883 C 32.14638137817383 9.571681976318359 35.32318496704102 8.081817626953125 38.49999618530273 8.081817626953125 Z"/>
  </g>
</svg>
